<?xml version="1.0" standalone="no"?>
<!DOCTYPE svg PUBLIC "-//W3C//DTD SVG 20010904//EN"
 "http://www.w3.org/TR/2001/REC-SVG-20010904/DTD/svg10.dtd">
<svg version="1.0" xmlns="http://www.w3.org/2000/svg"
 width="200.000000pt" height="200.000000pt" viewBox="0 0 200.000000 200.000000"
 preserveAspectRatio="xMidYMid meet">
<metadata>
Created by potrace 1.14, written by Peter Selinger 2001-2017
</metadata>
<g transform="translate(0.000000,200.000000) scale(0.100000,-0.100000)"
fill="#000000" stroke="none">
<path d="M430 1355 c0 -15 62 -181 137 -371 l138 -344 61 0 62 0 47 113 c26
61 55 130 65 152 l17 40 25 -55 c14 -30 42 -99 64 -153 l39 -97 64 2 63 3 144
360 c79 198 144 363 144 367 0 5 -33 8 -74 8 l-74 0 -15 -37 c-8 -21 -54 -147
-102 -280 -49 -134 -92 -243 -95 -243 -4 0 -26 50 -49 111 l-43 111 61 162
c34 89 61 165 61 169 0 4 -29 7 -64 7 l-64 0 -37 -112 c-21 -62 -41 -116 -44
-120 -4 -5 -25 45 -48 110 l-40 117 -68 3 c-62 3 -67 1 -60 -15 50 -128 115
-309 115 -321 0 -19 -82 -234 -87 -228 -2 2 -50 129 -106 282 l-102 279 -68 3
c-66 3 -67 3 -67 -23z"/>
</g>
</svg>
